<?xml version="1.0" encoding="UTF-8" standalone="no"?>
<!-- Created with Inkscape (http://www.inkscape.org/) -->

<svg
   xmlns:dc="http://purl.org/dc/elements/1.1/"
   xmlns:cc="http://creativecommons.org/ns#"
   xmlns:rdf="http://www.w3.org/1999/02/22-rdf-syntax-ns#"
   xmlns:svg="http://www.w3.org/2000/svg"
   xmlns="http://www.w3.org/2000/svg"
   xmlns:sodipodi="http://sodipodi.sourceforge.net/DTD/sodipodi-0.dtd"
   xmlns:inkscape="http://www.inkscape.org/namespaces/inkscape"
   width="210mm"
   height="297mm"
   viewBox="0 0 744.09448819 1052.3622047"
   id="svg2"
   version="1.1"
   inkscape:version="0.91 r13725"
   sodipodi:docname="sprites.svg">
  <defs
     id="defs4" />
  <sodipodi:namedview
     id="base"
     pagecolor="#000000"
     bordercolor="#666666"
     borderopacity="1.0"
     inkscape:pageopacity="0"
     inkscape:pageshadow="2"
     inkscape:zoom="2.2447715"
     inkscape:cx="265.53416"
     inkscape:cy="958.30947"
     inkscape:document-units="px"
     inkscape:current-layer="layer1"
     showgrid="false"
     inkscape:window-width="1366"
     inkscape:window-height="704"
     inkscape:window-x="0"
     inkscape:window-y="27"
     inkscape:window-maximized="1"
     showguides="true"
     inkscape:guide-bbox="true"
     inkscape:snap-bbox="true"
     inkscape:snap-others="false"
     inkscape:snap-bbox-edge-midpoints="true">
    <sodipodi:guide
       position="304.28467,964.94707"
       orientation="0,1"
       id="guide4173" />
  </sodipodi:namedview>
  <metadata
     id="metadata7">
    <rdf:RDF>
      <cc:Work
         rdf:about="">
        <dc:format>image/svg+xml</dc:format>
        <dc:type
           rdf:resource="http://purl.org/dc/dcmitype/StillImage" />
        <dc:title />
      </cc:Work>
    </rdf:RDF>
  </metadata>
  <g
     inkscape:label="Capa 1"
     inkscape:groupmode="layer"
     id="layer1">
    <g
       id="g4189"
       inkscape:export-xdpi="35.560001"
       inkscape:export-ydpi="35.560001">
      <circle
         r="63.26918"
         cy="88.561714"
         cx="97.012741"
         id="path4155"
         style="opacity:1;fill:#ffffff;fill-opacity:1;fill-rule:nonzero;stroke:none;stroke-width:5;stroke-linecap:round;stroke-linejoin:round;stroke-miterlimit:4;stroke-dasharray:none;stroke-opacity:1" />
      <path
         id="path4157"
         d="M 93.828125,25.40625 A 63.26918,63.26918 0 0 0 33.744141,88.5625 63.26918,63.26918 0 0 0 97.013672,151.83008 63.26918,63.26918 0 0 0 160.28125,88.5625 63.26918,63.26918 0 0 0 156.22656,66.369141 L 153.1582,73.0625 c 0,0 5.73031,13.666738 3.33008,19.976562 -1.96432,5.163905 -12.90234,10.406248 -12.90234,10.406248 0,0 3.74608,14.14918 -0.83203,21.64063 -4.57812,7.49146 -16.64844,0 -16.64844,0 0,0 -7.91125,12.91185 -14.56641,14.15039 -9.04393,1.68309 -25.386716,-10.82031 -25.386716,-10.82031 0,0 -14.392391,6.70885 -20.394532,3.33007 -7.43068,-4.18295 -9.572265,-23.72265 -9.572265,-23.72265 0,0 -11.27206,-8.974474 -11.652344,-15.400393 -0.389361,-6.579288 9.988281,-17.0625 9.988281,-17.0625 0,0 -5.944737,-18.882291 -0.832031,-25.804688 3.758937,-5.089443 18.3125,-4.99414 18.3125,-4.99414 0,0 -4.158288,-10.57726 21.826172,-19.355469 z"
         style="opacity:1;fill:#000000;fill-opacity:0.53684211;fill-rule:nonzero;stroke:none;stroke-width:1;stroke-linecap:round;stroke-linejoin:round;stroke-miterlimit:4;stroke-dasharray:none;stroke-opacity:1"
         inkscape:connector-curvature="0" />
      <path
         sodipodi:nodetypes="ccc"
         inkscape:connector-curvature="0"
         id="path4162"
         d="m 93.643187,46.010093 c 6.936673,-16.09202 21.052823,-6.691539 21.225793,-5.826687 -6.99639,-0.168662 -14.07307,1.81155 -21.225793,5.826687 z"
         style="opacity:1;fill:#000000;fill-opacity:0.53684211;fill-rule:nonzero;stroke:none;stroke-width:1;stroke-linecap:round;stroke-linejoin:round;stroke-miterlimit:4;stroke-dasharray:none;stroke-opacity:1" />
      <path
         style="opacity:1;fill:#000000;fill-opacity:0.53684211;fill-rule:nonzero;stroke:none;stroke-width:1;stroke-linecap:round;stroke-linejoin:round;stroke-miterlimit:4;stroke-dasharray:none;stroke-opacity:1"
         d="m 74.166102,99.033467 c 8.897497,20.640823 27.003928,8.583073 27.225788,7.473743 -8.97409,0.21634 -18.05117,-2.32363 -27.225788,-7.473743 z"
         id="path4164"
         inkscape:connector-curvature="0"
         sodipodi:nodetypes="ccc" />
      <path
         sodipodi:nodetypes="ccc"
         inkscape:connector-curvature="0"
         id="path4166"
         d="m 120.66541,96.859075 c 28.30417,-6.541535 11.14614,-23.764934 5.92628,-23.253049 6.45905,10.176388 7.15205,16.196226 -5.92628,23.253049 z"
         style="opacity:1;fill:#000000;fill-opacity:0.53684211;fill-rule:nonzero;stroke:none;stroke-width:1;stroke-linecap:round;stroke-linejoin:round;stroke-miterlimit:4;stroke-dasharray:none;stroke-opacity:1" />
    </g>
    <circle
       style="opacity:1;fill:#ffff00;fill-opacity:1;fill-rule:nonzero;stroke:none;stroke-width:1;stroke-linecap:round;stroke-linejoin:round;stroke-miterlimit:4;stroke-dasharray:none;stroke-opacity:1"
       id="path4146"
       cx="385.28903"
       cy="87.29409"
       r="9.3695936"
       inkscape:export-xdpi="38.422138"
       inkscape:export-ydpi="38.422138" />
    <g
       id="g4175"
       inkscape:export-xdpi="27.68"
       inkscape:export-ydpi="27.68">
      <g
         transform="translate(0,1.1682145)"
         id="g4164">
        <path
           style="opacity:1;fill:#d3d7cf;fill-opacity:1;fill-rule:nonzero;stroke:none;stroke-width:1;stroke-linecap:round;stroke-linejoin:round;stroke-miterlimit:4;stroke-dasharray:none;stroke-opacity:1"
           d="M 287.24035,82.81462 242.47883,24.07679 219.04486,15.46866 224.5786,89.175829 Z"
           id="path4202"
           inkscape:connector-curvature="0"
           sodipodi:nodetypes="ccccc" />
        <path
           inkscape:connector-curvature="0"
           id="path4204"
           d="m 287.24035,90.69977 -44.76152,58.73783 -23.43397,8.60813 5.53374,-69.814342 z"
           style="opacity:1;fill:#d3d7cf;fill-opacity:1;fill-rule:nonzero;stroke:none;stroke-width:1;stroke-linecap:round;stroke-linejoin:round;stroke-miterlimit:4;stroke-dasharray:none;stroke-opacity:1"
           sodipodi:nodetypes="ccccc" />
        <path
           inkscape:connector-curvature="0"
           style="opacity:1;fill:#eeeeec;fill-opacity:1;fill-rule:nonzero;stroke:none;stroke-width:1;stroke-linecap:round;stroke-linejoin:round;stroke-miterlimit:4;stroke-dasharray:none;stroke-opacity:1"
           d="M 287.24014,82.81391 242.47843,24.07758 219.54483,15.6518 c 6.83682,4.0235 21.33399,13.10352 21.33399,13.10352 l 27.14843,55.51367 19.21289,-1.45508 z"
           id="path4221" />
        <path
           id="path4226"
           d="m 287.24014,91.10688 -44.76171,58.73633 -22.9336,8.42578 c 6.83682,-4.0235 21.33399,-13.10352 21.33399,-13.10352 l 27.14843,-55.51367 19.21289,1.45508 z"
           style="opacity:1;fill:#eeeeec;fill-opacity:1;fill-rule:nonzero;stroke:none;stroke-width:1;stroke-linecap:round;stroke-linejoin:round;stroke-miterlimit:4;stroke-dasharray:none;stroke-opacity:1"
           inkscape:connector-curvature="0" />
      </g>
      <path
         sodipodi:nodetypes="ccccc"
         inkscape:connector-curvature="0"
         id="path4158"
         d="m 217.67636,44.225514 5.19627,43.160105 -5.19627,44.463851 130.0524,-44.433924 z"
         style="opacity:1;fill:#00ff00;fill-opacity:1;fill-rule:nonzero;stroke:none;stroke-width:1;stroke-linecap:round;stroke-linejoin:round;stroke-miterlimit:4;stroke-dasharray:none;stroke-opacity:1" />
      <path
         sodipodi:nodetypes="cccc"
         inkscape:connector-curvature="0"
         id="path4160"
         d="m 217.67578,44.224609 5.22803,43.127417 124.82599,0.06594 z"
         style="opacity:1;fill:#000000;fill-opacity:0.45964912;fill-rule:nonzero;stroke:none;stroke-width:1;stroke-linecap:round;stroke-linejoin:round;stroke-miterlimit:4;stroke-dasharray:none;stroke-opacity:1" />
      <path
         sodipodi:nodetypes="ccccc"
         inkscape:connector-curvature="0"
         id="path4167"
         d="m 233.48451,65.068973 -9.24246,22.495776 9.93324,23.441261 67.69669,-23.486604 z"
         style="opacity:1;fill:#0000ff;fill-opacity:0.45964912;fill-rule:nonzero;stroke:none;stroke-width:1;stroke-linecap:round;stroke-linejoin:round;stroke-miterlimit:4;stroke-dasharray:none;stroke-opacity:1" />
    </g>
  </g>
</svg>
